<svg width="34" height="34" viewBox="0 0 34 34" fill="none" xmlns="http://www.w3.org/2000/svg">
<path d="M6.41701 26.083C8.05567 24.9163 9.74301 24.0067 11.479 23.354C13.215 22.7013 15.0553 22.375 17 22.375C18.9447 22.375 20.792 22.7013 22.542 23.354C24.292 24.0067 25.9863 24.9163 27.625 26.083C28.7637 24.6943 29.59 23.25 30.104 21.75C30.618 20.25 30.875 18.6667 30.875 17C30.875 13.0833 29.5417 9.79166 26.875 7.12499C24.2083 4.45833 20.9167 3.12499 17 3.12499C13.0833 3.12499 9.79167 4.45833 7.12501 7.12499C4.45834 9.79166 3.12501 13.0833 3.12501 17C3.12501 18.6667 3.38901 20.25 3.91701 21.75C4.44434 23.25 5.27767 24.6943 6.41701 26.083ZM17 18.375C15.3887 18.375 14.0277 17.8193 12.917 16.708C11.8057 15.5973 11.25 14.2363 11.25 12.625C11.25 11.0137 11.8057 9.65266 12.917 8.54199C14.0277 7.43066 15.3887 6.87499 17 6.87499C18.6113 6.87499 19.9723 7.43066 21.083 8.54199C22.1943 9.65266 22.75 11.0137 22.75 12.625C22.75 14.2637 22.1943 15.6317 21.083 16.729C19.9723 17.8263 18.6113 18.375 17 18.375ZM17 33.667C14.722 33.667 12.5693 33.2293 10.542 32.354C8.51401 31.4793 6.74301 30.285 5.22901 28.771C3.71501 27.257 2.52067 25.493 1.64601 23.479C0.770674 21.465 0.333008 19.3053 0.333008 17C0.333008 14.6947 0.770674 12.535 1.64601 10.521C2.52067 8.50699 3.71501 6.74299 5.22901 5.22899C6.74301 3.71499 8.50701 2.52066 10.521 1.64599C12.535 0.770659 14.6947 0.332993 17 0.332993C19.3053 0.332993 21.465 0.770659 23.479 1.64599C25.493 2.52066 27.257 3.71499 28.771 5.22899C30.285 6.74299 31.4793 8.50699 32.354 10.521C33.2293 12.535 33.667 14.6947 33.667 17C33.667 19.278 33.2293 21.4307 32.354 23.458C31.4793 25.486 30.285 27.257 28.771 28.771C27.257 30.285 25.493 31.4793 23.479 32.354C21.465 33.2293 19.3053 33.667 17 33.667ZM17 30.875C18.5 30.875 19.9583 30.6597 21.375 30.229C22.7917 29.7983 24.1527 29.0693 25.458 28.042C24.1527 27.1253 22.7917 26.417 21.375 25.917C19.9583 25.417 18.5 25.167 17 25.167C15.5 25.167 14.0417 25.417 12.625 25.917C11.2083 26.417 9.84734 27.1253 8.54201 28.042C9.84734 29.0693 11.2083 29.7983 12.625 30.229C14.0417 30.6597 15.5 30.875 17 30.875ZM17 15.625C17.8613 15.625 18.5697 15.3473 19.125 14.792C19.6803 14.236 19.958 13.5137 19.958 12.625C19.958 11.7637 19.6803 11.0553 19.125 10.5C18.5697 9.94466 17.8613 9.66699 17 9.66699C16.1387 9.66699 15.4303 9.94466 14.875 10.5C14.3197 11.0553 14.042 11.7637 14.042 12.625C14.042 13.5137 14.3197 14.236 14.875 14.792C15.4303 15.3473 16.1387 15.625 17 15.625Z" fill="#FF8E1F"/>
</svg>
